<?xml version="1.0" encoding="UTF-8"?>
<svg version="1.1" xmlns="http://www.w3.org/2000/svg" width="460" height="460">
<path d="M0 0 C151.8 0 303.6 0 460 0 C460 151.8 460 303.6 460 460 C308.2 460 156.4 460 0 460 C0 308.2 0 156.4 0 0 Z " fill="#8688BF" transform="translate(0,0)"/>
<path d="M0 0 C3.01953125 0.63671875 3.01953125 0.63671875 5.1875 1.3125 C6.1855868 5.9977339 7.11749799 10.54951962 6.1875 15.3125 C3.4375 18.0625 3.4375 18.0625 0.1875 20.3125 C-1.17077971 21.95889965 -2.50504251 23.62545807 -3.8125 25.3125 C-5.46033606 26.99778688 -7.12252677 28.66947047 -8.8125 30.3125 C-7.6059375 31.4571875 -7.6059375 31.4571875 -6.375 32.625 C-2.26617773 36.93425262 -2.46760761 40.89324159 -2.53515625 46.58984375 C-3.0711456 51.85159836 -6.0215864 54.74237603 -9.875 58 C-11.47595432 59.26032574 -13.0883903 60.50829311 -14.75 61.6875 C-16.20795577 63.91731471 -15.93987644 65.63922453 -15.45703125 68.19140625 C-14.69891571 70.68629559 -13.63932508 72.90433073 -12.5 75.25 C-2.63200105 96.64978843 -2.61584077 122.95989584 -10.02197266 145.1965332 C-11.43717048 148.98452564 -13.10989636 152.64677276 -14.8125 156.3125 C-15.18632812 157.16199219 -15.56015625 158.01148438 -15.9453125 158.88671875 C-18.43564403 164.19092882 -21.48558037 168.92735011 -24.875 173.6875 C-25.29861816 174.28264404 -25.72223633 174.87778809 -26.15869141 175.4909668 C-28.48708791 178.69103573 -30.82512821 181.70417108 -33.8125 184.3125 C-34.4725 184.3125 -35.1325 184.3125 -35.8125 184.3125 C-36.1425 185.3025 -36.4725 186.2925 -36.8125 187.3125 C-47.17217879 197.17522003 -59.36242814 204.54736898 -72.8125 209.3125 C-73.50359863 209.55806641 -74.19469727 209.80363281 -74.90673828 210.05664062 C-95.79638881 217.11452121 -120.20844185 217.36179038 -140.8125 209.3125 C-141.43995117 209.08256348 -142.06740234 208.85262695 -142.71386719 208.61572266 C-151.58519273 205.34624353 -159.15690003 200.80678646 -166.8125 195.3125 C-167.52535156 194.82394531 -168.23820312 194.33539063 -168.97265625 193.83203125 C-172.22419858 191.588398 -175.22596318 189.31288271 -177.8125 186.3125 C-177.8125 185.6525 -177.8125 184.9925 -177.8125 184.3125 C-178.8025 183.9825 -179.7925 183.6525 -180.8125 183.3125 C-190.67522003 172.95282121 -198.04736898 160.76257186 -202.8125 147.3125 C-203.05806641 146.62140137 -203.30363281 145.93030273 -203.55664062 145.21826172 C-210.61452121 124.32861119 -210.86179038 99.91655815 -202.8125 79.3125 C-202.58256348 78.68504883 -202.35262695 78.05759766 -202.11572266 77.41113281 C-198.84624353 68.53980727 -194.30678646 60.96809997 -188.8125 53.3125 C-188.32394531 52.59964844 -187.83539063 51.88679688 -187.33203125 51.15234375 C-185.088398 47.90080142 -182.81288271 44.89903682 -179.8125 42.3125 C-179.1525 42.3125 -178.4925 42.3125 -177.8125 42.3125 C-177.4825 41.3225 -177.1525 40.3325 -176.8125 39.3125 C-166.067055 28.91566677 -152.77406361 21.42518526 -138.8125 16.3125 C-137.69488281 15.89742187 -136.57726562 15.48234375 -135.42578125 15.0546875 C-113.22204173 8.18953128 -86.76858282 10.51813006 -65.87255859 20.4609375 C-62.85588022 21.7079361 -60.05305982 22.03670768 -56.8125 22.3125 C-56.4825 21.3225 -56.1525 20.3325 -55.8125 19.3125 C-54.1728279 17.94610658 -52.50139872 16.6175581 -50.8125 15.3125 C-49.9875 14.44625 -49.1625 13.58 -48.3125 12.6875 C-44.70968105 9.264822 -42.24369603 8.41472829 -37.3125 8.0625 C-30.93476382 8.51805258 -28.11769543 10.63828782 -23.8125 15.3125 C-20.86597499 14.00762162 -19.0492769 12.71461387 -17 10.23828125 C-7.41405092 -0.72117696 -7.41405092 -0.72117696 0 0 Z " fill="#191919" transform="translate(336.8125,116.6875)"/>
<path d="M0 0 C3.01953125 0.63671875 3.01953125 0.63671875 5.1875 1.3125 C6.1855868 5.9977339 7.11749799 10.54951962 6.1875 15.3125 C3.4375 18.0625 3.4375 18.0625 0.1875 20.3125 C-1.17077971 21.95889965 -2.50504251 23.62545807 -3.8125 25.3125 C-5.46033606 26.99778688 -7.12252677 28.66947047 -8.8125 30.3125 C-7.6059375 31.4571875 -7.6059375 31.4571875 -6.375 32.625 C-2.26617773 36.93425262 -2.46760761 40.89324159 -2.53515625 46.58984375 C-3.0711456 51.85159836 -6.0215864 54.74237603 -9.875 58 C-11.47595432 59.26032574 -13.0883903 60.50829311 -14.75 61.6875 C-16.20795577 63.91731471 -15.93987644 65.63922453 -15.45703125 68.19140625 C-14.69891571 70.68629559 -13.63932508 72.90433073 -12.5 75.25 C-2.63200105 96.64978843 -2.61584077 122.95989584 -10.02197266 145.1965332 C-11.43717048 148.98452564 -13.10989636 152.64677276 -14.8125 156.3125 C-15.18632812 157.16199219 -15.56015625 158.01148438 -15.9453125 158.88671875 C-18.43564403 164.19092882 -21.48558037 168.92735011 -24.875 173.6875 C-25.29861816 174.28264404 -25.72223633 174.87778809 -26.15869141 175.4909668 C-28.48708791 178.69103573 -30.82512821 181.70417108 -33.8125 184.3125 C-34.4725 184.3125 -35.1325 184.3125 -35.8125 184.3125 C-36.1425 185.3025 -36.4725 186.2925 -36.8125 187.3125 C-47.17217879 197.17522003 -59.36242814 204.54736898 -72.8125 209.3125 C-73.50359863 209.55806641 -74.19469727 209.80363281 -74.90673828 210.05664062 C-95.79638881 217.11452121 -120.20844185 217.36179038 -140.8125 209.3125 C-141.43995117 209.08256348 -142.06740234 208.85262695 -142.71386719 208.61572266 C-151.58519273 205.34624353 -159.15690003 200.80678646 -166.8125 195.3125 C-167.52535156 194.82394531 -168.23820312 194.33539063 -168.97265625 193.83203125 C-172.22419858 191.588398 -175.22596318 189.31288271 -177.8125 186.3125 C-177.8125 185.6525 -177.8125 184.9925 -177.8125 184.3125 C-178.8025 183.9825 -179.7925 183.6525 -180.8125 183.3125 C-190.67522003 172.95282121 -198.04736898 160.76257186 -202.8125 147.3125 C-203.05806641 146.62140137 -203.30363281 145.93030273 -203.55664062 145.21826172 C-210.61452121 124.32861119 -210.86179038 99.91655815 -202.8125 79.3125 C-202.58256348 78.68504883 -202.35262695 78.05759766 -202.11572266 77.41113281 C-198.84624353 68.53980727 -194.30678646 60.96809997 -188.8125 53.3125 C-188.32394531 52.59964844 -187.83539063 51.88679688 -187.33203125 51.15234375 C-185.088398 47.90080142 -182.81288271 44.89903682 -179.8125 42.3125 C-179.1525 42.3125 -178.4925 42.3125 -177.8125 42.3125 C-177.4825 41.3225 -177.1525 40.3325 -176.8125 39.3125 C-166.067055 28.91566677 -152.77406361 21.42518526 -138.8125 16.3125 C-137.69488281 15.89742187 -136.57726562 15.48234375 -135.42578125 15.0546875 C-113.22204173 8.18953128 -86.76858282 10.51813006 -65.87255859 20.4609375 C-62.85588022 21.7079361 -60.05305982 22.03670768 -56.8125 22.3125 C-56.4825 21.3225 -56.1525 20.3325 -55.8125 19.3125 C-54.1728279 17.94610658 -52.50139872 16.6175581 -50.8125 15.3125 C-49.9875 14.44625 -49.1625 13.58 -48.3125 12.6875 C-44.70968105 9.264822 -42.24369603 8.41472829 -37.3125 8.0625 C-30.93476382 8.51805258 -28.11769543 10.63828782 -23.8125 15.3125 C-20.86597499 14.00762162 -19.0492769 12.71461387 -17 10.23828125 C-7.41405092 -0.72117696 -7.41405092 -0.72117696 0 0 Z M-145.75 27.20703125 C-148.3388188 28.5945989 -150.9961145 29.49723051 -153.8125 30.3125 C-153.8125 30.9725 -153.8125 31.6325 -153.8125 32.3125 C-154.616875 32.4671875 -154.616875 32.4671875 -155.4375 32.625 C-161.17534738 34.28595582 -164.73940138 37.03574644 -168.8125 41.3125 C-169.8439271 42.17900348 -170.88584678 43.03315937 -171.9375 43.875 C-174.35752985 45.92676444 -176.15063413 47.63504943 -177.8125 50.3125 C-177.8125 50.9725 -177.8125 51.6325 -177.8125 52.3125 C-179.2975 52.8075 -179.2975 52.8075 -180.8125 53.3125 C-184.81771942 56.48329871 -186.86455943 61.38320904 -187.8125 66.3125 C-188.4725 66.3125 -189.1325 66.3125 -189.8125 66.3125 C-190.21082031 67.31410156 -190.60914063 68.31570312 -191.01953125 69.34765625 C-191.55464036 70.69012296 -192.08979928 72.03256981 -192.625 73.375 C-192.88603516 74.03177734 -193.14707031 74.68855469 -193.41601562 75.36523438 C-193.67705078 76.01943359 -193.93808594 76.67363281 -194.20703125 77.34765625 C-194.47209473 78.0142627 -194.7371582 78.68086914 -195.01025391 79.36767578 C-195.75041374 81.16198901 -196.56546104 82.92492029 -197.38671875 84.68359375 C-204.49604326 102.77828545 -203.0960614 126.51055768 -195.8125 144.3125 C-195.45542969 145.21613281 -195.09835938 146.11976563 -194.73046875 147.05078125 C-193.83000338 149.18535055 -192.86007012 151.24692827 -191.8125 153.3125 C-191.4721875 153.99441406 -191.131875 154.67632812 -190.78125 155.37890625 C-190.1036482 156.73154319 -189.41894752 158.08065157 -188.7265625 159.42578125 C-187.8125 161.3125 -187.8125 161.3125 -186.625 164.625 C-182.03891507 175.38278434 -169.28375848 188.11297855 -158.8125 193.3125 C-158.1525 192.9825 -157.4925 192.6525 -156.8125 192.3125 C-158.59923205 190.8066255 -160.39203508 189.3079515 -162.1875 187.8125 C-163.18523437 186.9771875 -164.18296875 186.141875 -165.2109375 185.28125 C-167.53454708 183.11135244 -167.53454708 183.11135244 -169.8125 183.3125 C-169.8125 182.6525 -169.8125 181.9925 -169.8125 181.3125 C-169.13445312 181.75980469 -168.45640625 182.20710937 -167.7578125 182.66796875 C-144.34600884 197.87591323 -120.39082417 203.7871463 -92.84423828 198.01953125 C-86.90479205 196.68341681 -81.28298369 195.02709851 -75.8125 192.3125 C-74.87664062 191.86261719 -73.94078125 191.41273438 -72.9765625 190.94921875 C-51.50119779 179.84035725 -32.82039859 161.71666863 -25.14697266 138.27978516 C-23.82069004 133.66875347 -22.80586754 129.00478889 -21.8125 124.3125 C-21.58691406 123.43078125 -21.36132812 122.5490625 -21.12890625 121.640625 C-16.35601824 102.02240944 -21.49691947 78.41832207 -31.61328125 61.2578125 C-33.29792225 58.57215293 -35.02826535 55.9326733 -36.8125 53.3125 C-37.4725 52.3225 -38.1325 51.3325 -38.8125 50.3125 C-38.1525 50.3125 -37.4925 50.3125 -36.8125 50.3125 C-36.55726563 50.87453125 -36.30203125 51.4365625 -36.0390625 52.015625 C-34.65557219 54.60636482 -33.01311417 56.76357845 -31.1875 59.0625 C-30.55585938 59.86171875 -29.92421875 60.6609375 -29.2734375 61.484375 C-28.79132813 62.08765625 -28.30921875 62.6909375 -27.8125 63.3125 C-27.4825 62.6525 -27.1525 61.9925 -26.8125 61.3125 C-36.11636743 48.11311084 -46.63490097 36.1191688 -62.05078125 30.41796875 C-64.8125 29.3125 -64.8125 29.3125 -67.17578125 27.8359375 C-70.52034455 25.90352315 -74.00727628 24.84030927 -77.6875 23.75 C-78.36941406 23.54181641 -79.05132812 23.33363281 -79.75390625 23.11914062 C-81.12334281 22.70309275 -82.49539266 22.29555328 -83.86987305 21.89648438 C-85.58102256 21.38208578 -87.26799188 20.78866793 -88.94921875 20.18359375 C-107.28457818 16.04933171 -129.2203871 18.13249714 -145.75 27.20703125 Z " fill="#050506" transform="translate(336.8125,116.6875)"/>
<path d="M0 0 C1.26618164 0.00354492 2.53236328 0.00708984 3.83691406 0.01074219 C13.90450281 0.18836009 22.45969932 1.70737137 31.75 5.5 C32.61882812 5.83386719 33.48765625 6.16773438 34.3828125 6.51171875 C36.56884557 7.41431429 38.64865527 8.41594178 40.75 9.5 C41.59433594 9.91765625 42.43867188 10.3353125 43.30859375 10.765625 C50.63931487 14.5505647 57.52547843 19.0684803 63.75 24.5 C63.75 25.16 63.75 25.82 63.75 26.5 C60.39244226 25.26850823 57.73273528 23.88469383 54.875 21.75 C42.7970026 13.54418449 27.2262075 9.27755301 12.75 8.5 C11.67621094 8.43554688 10.60242188 8.37109375 9.49609375 8.3046875 C-14.52411975 7.54052376 -37.90287227 16.8275694 -55.6875 32.875 C-61.27666744 38.25182458 -65.90986383 44.08489832 -70.25 50.5 C-70.81460938 51.33273438 -71.37921875 52.16546875 -71.9609375 53.0234375 C-84.27822706 72.34345005 -88.39850841 97.3051096 -83.625 119.625 C-80.83431921 131.4475698 -76.57920138 142.25877944 -69.66796875 152.328125 C-68.25 154.5 -68.25 154.5 -67.25 157.5 C-67.91 157.5 -68.57 157.5 -69.25 157.5 C-71.09471075 155.26645316 -72.8109079 153.03508507 -74.5 150.6875 C-74.99580566 149.99970459 -75.49161133 149.31190918 -76.00244141 148.60327148 C-83.48213545 138.08242356 -87.7504252 127.8245895 -91.25 115.5 C-91.61867187 114.47261719 -91.98734375 113.44523437 -92.3671875 112.38671875 C-96.53027254 94.05809215 -94.4285202 72.08941218 -85.35546875 55.5625 C-83.9679011 52.9736812 -83.06526949 50.3163855 -82.25 47.5 C-81.59 47.5 -80.93 47.5 -80.25 47.5 C-80.146875 46.96375 -80.04375 46.4275 -79.9375 45.875 C-78.48175473 40.84606181 -76.28039891 36.88033457 -72.25 33.5 C-71.59 33.5 -70.93 33.5 -70.25 33.5 C-70.023125 32.943125 -69.79625 32.38625 -69.5625 31.8125 C-67.21743859 27.68072514 -63.63876052 24.78648696 -60 21.8125 C-57.23257806 19.7957678 -57.23257806 19.7957678 -56.25 17.5 C-52.98912209 15.68840116 -49.92446567 14.20662801 -46.25 13.5 C-46.25 12.84 -46.25 12.18 -46.25 11.5 C-45.21359375 11.09007812 -44.1771875 10.68015625 -43.109375 10.2578125 C-41.73954661 9.7136341 -40.36975698 9.16935813 -39 8.625 C-38.31808594 8.35558594 -37.63617188 8.08617187 -36.93359375 7.80859375 C-33.09669215 6.29706675 -33.09669215 6.29706675 -29.38671875 4.50537109 C-20.29662952 0.228293 -9.85670092 -0.05000729 0 0 Z " fill="#424242" transform="translate(229.25,135.5)"/>
<path d="M0 0 C0.66 0 1.32 0 2 0 C16.4994851 15.26694367 25.2548144 37.07000443 26 58 C26.03996094 58.77085937 26.07992187 59.54171875 26.12109375 60.3359375 C26.72046128 81.5605993 20.52909782 105.27253606 6.375 121.5625 C5.25505228 122.71327197 4.13017099 123.85926666 3 125 C1.87087494 126.35072905 0.7459698 127.70499528 -0.375 129.0625 C-13.57417026 143.97321102 -36.03869376 154.86982728 -55.8125 156.484375 C-84.21410694 158.15794378 -109.31461838 152.14350539 -131 133 C-131 132.34 -131 131.68 -131 131 C-127.7681765 132.54040186 -124.7909326 134.36428202 -121.75 136.25 C-98.97548305 149.5167089 -74.5583219 151.71696922 -49.15234375 145.56884766 C-44.90553833 144.44645013 -40.92943048 142.9498872 -37 141 C-36.06414062 140.55011719 -35.12828125 140.10023438 -34.1640625 139.63671875 C-16.31885215 130.40567784 -2.76249489 117.63368022 7 100 C7.44214844 99.24460937 7.88429688 98.48921875 8.33984375 97.7109375 C12.45088438 90.2385901 14.16628805 82.24747861 16 74 C16.22816406 73.113125 16.45632813 72.22625 16.69140625 71.3125 C21.41296652 51.76590083 16.40567901 27.98561911 6.1640625 10.9453125 C4.95166752 9.04012039 3.71716376 7.1486707 2.453125 5.27734375 C1 3 1 3 0 0 Z " fill="#000000" transform="translate(298,167)"/>
<path d="M0 0 C0.72074707 0.03057495 1.44149414 0.0611499 2.18408203 0.09265137 C12.5208059 0.55447688 22.07811093 2.4429762 32 5.25 C32 6.24 32 7.23 32 8.25 C19.17755473 11.69072771 6.19436023 12.40176083 -7 13.25 C-7.82725586 13.30929687 -8.65451172 13.36859375 -9.50683594 13.4296875 C-39.36954764 15.56183181 -69.62977127 14.7826784 -99.45654297 12.51391602 C-101.89198113 12.33252504 -104.32865475 12.16722824 -106.76611328 12.01538086 C-112.79037629 11.63363986 -118.52286392 11.18304589 -124.375 9.6875 C-125.45523438 9.41808594 -126.53546875 9.14867187 -127.6484375 8.87109375 C-128.42445313 8.66613281 -129.20046875 8.46117187 -130 8.25 C-130 7.26 -130 6.27 -130 5.25 C-119.3381592 2.2336348 -109.08930535 0.47042157 -98 0 C-97.24187012 -0.036698 -96.48374023 -0.073396 -95.70263672 -0.11120605 C-63.88746833 -1.63123526 -31.81236313 -1.53990769 0 0 Z " fill="#6C6E9A" transform="translate(279,354.75)"/>
<path d="M0 0 C30.22858807 3.33580551 30.22858807 3.33580551 41.8125 9.0625 C43.8125 12.0625 43.8125 12.0625 43.8125 14.8125 C42.4254229 19.32050058 40.48953506 22.0973721 36.8125 25.0625 C28.4114617 29.47872149 19.36575299 32.46778757 9.8125 31.0625 C2.83476784 28.44701807 -2.90337304 24.89403835 -6.1875 18.0625 C-10.12160853 8.73304264 -10.12160853 8.73304264 -9.1875 4.0625 C-6.26216293 0.39911917 -4.64888295 -0.46809442 0 0 Z " fill="#060606" transform="translate(178.1875,229.9375)"/>
<path d="M0 0 C5.39882424 4.59474404 10.71333087 9.27676273 16 14 C16.94101562 13.51789063 17.88203125 13.03578125 18.8515625 12.5390625 C20.10926522 11.9008253 21.36708392 11.2628166 22.625 10.625 C23.55119141 10.14933594 23.55119141 10.14933594 24.49609375 9.6640625 C28.25649167 7.76407197 31.95517816 6.23211496 36 5 C35.51789063 5.95261719 35.03578125 6.90523438 34.5390625 7.88671875 C33.90093396 9.15359159 33.26291914 10.42052171 32.625 11.6875 C32.14933594 12.62625977 32.14933594 12.62625977 31.6640625 13.58398438 C29.94527919 17.00364701 28.35530783 20.42007074 27 24 C28.58015623 25.60729631 30.16425652 27.21071576 31.75 28.8125 C32.63171875 29.70582031 33.5134375 30.59914063 34.421875 31.51953125 C36.86454043 33.98153312 36.86454043 33.98153312 39.328125 35.69921875 C39.87984375 36.12847656 40.4315625 36.55773437 41 37 C41 37.66 41 38.32 41 39 C33.32537035 38.06024943 25.66322553 37.0277503 18 36 C17.87367188 36.9178125 17.74734375 37.835625 17.6171875 38.78125 C16.98456702 42.08048593 15.79581118 44.40075103 14.0546875 47.25390625 C12.54297418 49.75663164 11.28107732 52.37379149 10 55 C7.77302853 51.65954279 7.44275365 49.56322772 6.875 45.625 C6.70742188 44.50351563 6.53984375 43.38203125 6.3671875 42.2265625 C6 39 6 39 6 34 C-1.26 33.67 -8.52 33.34 -16 33 C-13.17345998 30.17345998 -10.9896783 28.77145728 -7.5 26.9375 C-4.555813 25.38230445 -1.77316705 23.84877804 1 22 C1.99 22 2.98 22 4 22 C3.71125 20.91460937 3.4225 19.82921875 3.125 18.7109375 C2.74961979 17.2657237 2.37464103 15.82040559 2 14.375 C1.80921875 13.66214844 1.6184375 12.94929688 1.421875 12.21484375 C0.34982713 8.04151456 -0.21946814 4.34821249 0 0 Z " fill="#FA9223" transform="translate(336,84)"/>
<path d="M0 0 C4.47431932 2.32320426 6.93124556 5.09431253 10 9 C11.24491559 9.92355994 12.49530018 10.83977688 13.75 11.75 C15.80625302 13.485798 16.84581918 14.5339928 17.6953125 17.1015625 C18.07889966 21.95477398 16.88165575 24.68750925 13.75 28.375 C11.34548398 30.87199741 8.8100042 32.97331556 6 35 C4.5 33.625 4.5 33.625 3 32 C3 31.34 3 30.68 3 30 C2.01 29.67 1.02 29.34 0 29 C-1.35386936 27.34997172 -2.68678142 25.6825613 -4 24 C-4.99 23.34 -5.98 22.68 -7 22 C-7 21.34 -7 20.68 -7 20 C-7.56203125 19.73445313 -8.1240625 19.46890625 -8.703125 19.1953125 C-11.17930222 17.90668966 -13.43844882 16.43869639 -15.75 14.875 C-16.54921875 14.33617187 -17.3484375 13.79734375 -18.171875 13.2421875 C-18.77515625 12.83226562 -19.3784375 12.42234375 -20 12 C-18.6118265 8.87142986 -16.98898122 6.71810826 -14.5625 4.3125 C-13.96566406 3.71050781 -13.36882812 3.10851562 -12.75390625 2.48828125 C-9.10338478 -0.60937728 -4.56687605 -0.62393752 0 0 Z " fill="#191919" transform="translate(304,133)"/>
<path d="M0 0 C0.55814684 5.58146845 -0.90247632 9.45756731 -4 14 C-8.56455877 18.90345873 -11.97290911 20.84608012 -18.6875 21.1875 C-25.69637141 21.08308478 -31.88158834 19.45141171 -38 16 C-38 15.34 -38 14.68 -38 14 C-38.99 13.67 -39.98 13.34 -41 13 C-41.33 11.02 -41.66 9.04 -42 7 C-21.41687026 2.80397325 -21.41687026 2.80397325 -12.1171875 1.39453125 C-4.26455026 -0.06878307 -4.26455026 -0.06878307 0 0 Z " fill="#F7F7F7" transform="translate(286,235)"/>
<path d="M0 0 C6.73458318 0.18431133 13.3667903 1.55054957 19.9375 2.9375 C21.6808422 3.29628982 23.42433106 3.65436775 25.16796875 4.01171875 C25.99603027 4.1823584 26.8240918 4.35299805 27.67724609 4.52880859 C32.10453202 5.42692314 36.54986087 6.22428767 41 7 C41.495 8.485 41.495 8.485 42 10 C37.93305723 16.59125208 32.17564454 18.51558952 24.95703125 20.5859375 C18.79065738 21.89059944 13.30134681 21.46077727 7.7890625 18.3203125 C2.36710006 14.31895157 0.45249459 9.26247295 -0.8359375 2.8203125 C-0.89007813 2.21960938 -0.94421875 1.61890625 -1 1 C-0.67 0.67 -0.34 0.34 0 0 Z " fill="#F8F8F8" transform="translate(175,235)"/>
<path d="M0 0 C2.1875 0.3125 2.1875 0.3125 4.5 1.875 C6.89369204 5.33255517 6.72545627 7.14333894 6.1875 11.3125 C4.21254954 18.99011992 0.80947526 23.93835121 -5.8125 28.3125 C-12.59355097 32.19531037 -20.31836591 32.51723502 -27.78515625 30.515625 C-32.42439829 28.89220248 -36.73600663 27.09591214 -40.8125 24.3125 C-40.8125 23.6525 -40.8125 22.9925 -40.8125 22.3125 C-41.8025 21.9825 -42.7925 21.6525 -43.8125 21.3125 C-46.27574069 17.61763897 -46.20241688 15.67956908 -45.8125 11.3125 C-41.32927767 4.82613578 -26.89757785 4.03792034 -19.4375 2.625 C-12.96563092 1.44329498 -6.53089465 0.72565496 0 0 Z M-9.328125 6.19140625 C-14.43356544 7.83407599 -19.64787898 8.54196388 -24.9375 9.375 C-27.08616492 9.71863309 -29.23461236 10.06362953 -31.3828125 10.41015625 C-32.32914551 10.55976807 -33.27547852 10.70937988 -34.25048828 10.86352539 C-36.47473314 11.25330872 -38.63203442 11.73003808 -40.8125 12.3125 C-40.4825 14.2925 -40.1525 16.2725 -39.8125 18.3125 C-38.8225 18.6425 -37.8325 18.9725 -36.8125 19.3125 C-36.8125 19.9725 -36.8125 20.6325 -36.8125 21.3125 C-31.8100775 24.10606061 -27.62214402 25.89752543 -21.8125 26.3125 C-21.1628125 26.3640625 -20.513125 26.415625 -19.84375 26.46875 C-14.83755446 26.69980518 -11.24207666 25.85540512 -6.8125 23.3125 C-2.0977564 18.92291113 1.0641206 14.58205404 1.3125 8 C1.27125 7.113125 1.23 6.22625 1.1875 5.3125 C-4.16498837 5.04971797 -4.16498837 5.04971797 -9.328125 6.19140625 Z " fill="#050505" transform="translate(284.8125,229.6875)"/>
<path d="M0 0 C0.9075 0.845625 1.815 1.69125 2.75 2.5625 C5.08547804 4.62415037 5.08547804 4.62415037 8.0625 4.9375 C8.701875 4.628125 9.34125 4.31875 10 4 C11.36125 3.4740625 11.36125 3.4740625 12.75 2.9375 C13.4925 2.628125 14.235 2.31875 15 2 C14.690625 2.763125 14.38125 3.52625 14.0625 4.3125 C13.32106407 6.18789677 12.63771783 8.08684652 12 10 C12.99 10.804375 13.98 11.60875 15 12.4375 C15.99 13.283125 16.98 14.12875 18 15 C18 15.33 18 15.66 18 16 C14.7 16 11.4 16 8 16 C6.68 18.31 5.36 20.62 4 23 C3.67 23 3.34 23 3 23 C2.67 20.36 2.34 17.72 2 15 C-0.31 14.67 -2.62 14.34 -5 14 C-4 12 -4 12 -0.9375 10.875 C0.5165625 10.441875 0.5165625 10.441875 2 10 C1.34 6.7 0.68 3.4 0 0 Z " fill="#FFBC1E" transform="translate(344,99)"/>
<path d="M0 0 C3 2.125 3 2.125 5 5 C5 6.98 5 8.96 5 11 C-0.94 11 -6.88 11 -13 11 C-12 3 -12 3 -10.4375 1 C-6.91367305 -0.4456726 -3.69877173 -0.77637585 0 0 Z " fill="#010101" transform="translate(234,271)"/>
<path d="M0 0 C2.5 2 2.5 2 4 4 C2.453125 4.0928125 2.453125 4.0928125 0.875 4.1875 C-5.61676733 5.54867702 -9.52496261 10.39334387 -14 15 C-15.98 14.01 -17.96 13.02 -20 12 C-18.6118265 8.87142986 -16.98898122 6.71810826 -14.5625 4.3125 C-13.96566406 3.71050781 -13.36882812 3.10851562 -12.75390625 2.48828125 C-9.14211089 -0.57651615 -4.53270515 -0.70225009 0 0 Z " fill="#424242" transform="translate(304,133)"/>
<path d="M0 0 C1.98 0.66 3.96 1.32 6 2 C5.67 3.32 5.34 4.64 5 6 C4.34 6 3.68 6 3 6 C2.67 6.99 2.34 7.98 2 9 C-0.9375 8.625 -0.9375 8.625 -4 8 C-4.33 7.34 -4.66 6.68 -5 6 C-4.67 5.34 -4.34 4.68 -4 4 C-3.34 4 -2.68 4 -2 4 C-1.34 2.68 -0.68 1.36 0 0 Z " fill="#211F1E" transform="translate(328,127)"/>
<path d="M0 0 C0.33 1.98 0.66 3.96 1 6 C-1.31 5.67 -3.62 5.34 -6 5 C-6 3.68 -6 2.36 -6 1 C-4 0 -4 0 0 0 Z " fill="#4A3C31" transform="translate(342,118)"/>
<path d="M0 0 C1.65 0.33 3.3 0.66 5 1 C5.33 1.99 5.66 2.98 6 4 C3.69 3.67 1.38 3.34 -1 3 C-0.67 2.01 -0.34 1.02 0 0 Z " fill="#4A403A" transform="translate(320,136)"/>
<path d="M0 0 C1.98 0.66 3.96 1.32 6 2 C6 2.99 6 3.98 6 5 C1.25 4.125 1.25 4.125 -1 3 C-0.67 2.01 -0.34 1.02 0 0 Z " fill="#4B413B" transform="translate(328,127)"/>
<path d="M0 0 C2.31 0.33 4.62 0.66 7 1 C6.67 1.99 6.34 2.98 6 4 C4.02 3.34 2.04 2.68 0 2 C0 1.34 0 0.68 0 0 Z " fill="#4C413C" transform="translate(331,124)"/>
<path d="M0 0 C2.97 0.495 2.97 0.495 6 1 C6 1.99 6 2.98 6 4 C3.03 3.505 3.03 3.505 0 3 C0 2.01 0 1.02 0 0 Z " fill="#4F433E" transform="translate(324,132)"/>
<path d="M0 0 C3.465 1.485 3.465 1.485 7 3 C6.01 3.495 6.01 3.495 5 4 C4.67 4.66 4.34 5.32 4 6 C2.35 4.68 0.7 3.36 -1 2 C-0.67 1.34 -0.34 0.68 0 0 Z " fill="#211F1D" transform="translate(322,133)"/>
</svg>
